# xmcd
#
# Track frame offsets:
#	150
#	50857
#	66995
#	84940
#	103865
#	124855
#	144065
#	159685
#	172507
#	187427
#	209692
#	233127
#	248230
#	276415
#	289535
#	309872
#
# Disc length: 4335 seconds
#
# Revision: 0
# Processed by: cddbd v1.4PL0 Copyright (c) Steve Scherf et al.
# Submitted via: EasyCDDAExtractor 4.6.9.1
#
DISCID=ec10ed10
DTITLE=diversen - Streetlife
DYEAR=1994
DGENRE=pop
TTITLE0=Crusaders - Streetlife
TTITLE1=BB King - Ain't nobody home
TTITLE2=Maria mcKee - Nobody's child
TTITLE3=Dan Hartman - I can dream about you
TTITLE4=Lynyrd Skynyrd - Sweet home Alabama
TTITLE5=Pointer sisters - Yes we can can
TTITLE6=Steppenwolf - Born to be wild
TTITLE7=Muddy Waters - Hoochie Coochie Man
TTITLE8=Three dog night - Mama told me (not to come)
TTITLE9=What I am
TTITLE10=Joe Walsh - Rocky Mountain way
TTITLE11=Gary Moore - Parisienne walkways
TTITLE12=Steve Earle - Billy Austin
TTITLE13=Nils Lofgren - I go to pieces
TTITLE14=Nik kershaw - Wouldn't it be good
TTITLE15=Jan Hammer - Crokett's theme
EXTD=
EXTT0=
EXTT1=
EXTT2=
EXTT3=
EXTT4=
EXTT5=
EXTT6=
EXTT7=
EXTT8=
EXTT9=
EXTT10=
EXTT11=
EXTT12=
EXTT13=
EXTT14=
EXTT15=
PLAYORDER=
